<?xml version="1.0" encoding="utf-8" ?><svg xmlns="http://www.w3.org/2000/svg" xmlns:xlink="http://www.w3.org/1999/xlink" width="64" height="64"><path fill="#4F46E5" transform="matrix(1 0 0 1 10.6667 53.3333)" d="M48 -0.9L0 -0.9Q-0.3773 -0.9109 -0.6364 -0.6364Q-0.9109 -0.3773 -0.9 0Q-0.9109 0.3773 -0.6364 0.6364Q-0.3773 0.9109 0 0.9L48 0.9Q48.3773 0.9109 48.6364 0.6364Q48.9109 0.3773 48.9 0Q48.9109 -0.3773 48.6364 -0.6364Q48.3773 -0.9109 48 -0.9Z" fill-rule="evenodd"/><path fill="#4F46E5" transform="matrix(1 0 0 1 13.3333 40)" d="M-0.9 0L-0.9 13.3333Q-0.9109 13.7106 -0.6364 13.9697Q-0.3773 14.2442 0 14.2333Q0.3773 14.2442 0.6364 13.9697Q0.9109 13.7106 0.9 13.3333L0.9 0Q0.9109 -0.3773 0.6364 -0.6364Q0.3773 -0.9109 0 -0.9Q-0.3773 -0.9109 -0.6364 -0.6364Q-0.9109 -0.3773 -0.9 0Z" fill-rule="evenodd"/><path fill="#4F46E5" transform="matrix(1 0 0 1 25.3333 29.3333)" d="M-0.9 0L-0.9 24Q-0.9109 24.3773 -0.6364 24.6364Q-0.3773 24.9109 0 24.9Q0.3773 24.9109 0.6364 24.6364Q0.9109 24.3773 0.9 24L0.9 0Q0.9109 -0.3773 0.6364 -0.6364Q0.3773 -0.9109 0 -0.9Q-0.3773 -0.9109 -0.6364 -0.6364Q-0.9109 -0.3773 -0.9 0Z" fill-rule="evenodd"/><path fill="#4F46E5" transform="matrix(1 0 0 1 37.3333 21.3333)" d="M-0.9 0L-0.9 32Q-0.9109 32.3773 -0.6364 32.6364Q-0.3773 32.9109 0 32.9Q0.3773 32.9109 0.6364 32.6364Q0.9109 32.3773 0.9 32L0.9 0Q0.9109 -0.3773 0.6364 -0.6364Q0.3773 -0.9109 0 -0.9Q-0.3773 -0.9109 -0.6364 -0.6364Q-0.9109 -0.3773 -0.9 0Z" fill-rule="evenodd"/><path fill="#4F46E5" transform="matrix(1 0 0 1 49.3333 13.3333)" d="M-0.9 0L-0.9 40Q-0.9109 40.3773 -0.6364 40.6364Q-0.3773 40.9109 0 40.9Q0.3773 40.9109 0.6364 40.6364Q0.9109 40.3773 0.9 40L0.9 0Q0.9109 -0.3773 0.6364 -0.6364Q0.3773 -0.9109 0 -0.9Q-0.3773 -0.9109 -0.6364 -0.6364Q-0.9109 -0.3773 -0.9 0Z" fill-rule="evenodd"/><path fill="#F59E0B" transform="matrix(1 0 0 1 58.6667 8)" d="M-0.9 0L-0.9 45.3333Q-0.9109 45.7106 -0.6364 45.9697Q-0.3773 46.2442 0 46.2333Q0.3773 46.2442 0.6364 45.9697Q0.9109 45.7106 0.9 45.3333L0.9 0Q0.9109 -0.3773 0.6364 -0.6364Q0.3773 -0.9109 0 -0.9Q-0.3773 -0.9109 -0.6364 -0.6364Q-0.9109 -0.3773 -0.9 0Z" fill-rule="evenodd"/></svg>