<?xml version="1.0" encoding="utf-8" ?><svg xmlns="http://www.w3.org/2000/svg" xmlns:xlink="http://www.w3.org/1999/xlink" width="64" height="64"><path fill="#4F46E5" transform="matrix(1 0 0 1 10.6667 18.6667)" d="M8 -0.9L0 -0.9Q-0.3773 -0.9109 -0.6364 -0.6364Q-0.9109 -0.3773 -0.9 0Q-0.9109 0.3773 -0.6364 0.6364Q-0.3773 0.9109 0 0.9L7.6272 0.9L34.0303 27.3031Q34.1565 27.4302 34.3223 27.4982Q34.4875 27.5673 34.6667 27.5667L42.6667 27.5667Q43.044 27.5775 43.3031 27.3031Q43.5775 27.044 43.5667 26.6667Q43.5775 26.2894 43.3031 26.0303Q43.044 25.7558 42.6667 25.7667L35.0395 25.7667L8.6364 -0.6364Q8.5102 -0.7636 8.3444 -0.8315Q8.1792 -0.9007 8 -0.9Z" fill-rule="evenodd"/><path fill="#4F46E5" transform="matrix(1 0 0 1 10.6667 38.6667)" d="M7.6272 5.7667L0 5.7667Q-0.3773 5.7558 -0.6364 6.0303Q-0.9109 6.2894 -0.9 6.6667Q-0.9109 7.044 -0.6364 7.3031Q-0.3773 7.5775 0 7.5667L8 7.5667Q8.1792 7.5673 8.3444 7.4982Q8.5102 7.4302 8.6364 7.3031L15.3031 0.6364Q15.5775 0.3773 15.5667 0Q15.5775 -0.3773 15.3031 -0.6364Q15.044 -0.9109 14.6667 -0.9Q14.2894 -0.9109 14.0303 -0.6364L7.6272 5.7667Z" fill-rule="evenodd"/><path fill="#4F46E5" transform="matrix(1 0 0 1 38.6667 18.6667)" d="M6.0303 -0.6364L-0.6364 6.0303Q-0.9109 6.2894 -0.9 6.6667Q-0.9109 7.044 -0.6364 7.3031Q-0.3773 7.5775 0 7.5667Q0.3773 7.5775 0.6364 7.3031L7.0395 0.9L14.6667 0.9Q15.044 0.9109 15.3031 0.6364Q15.5775 0.3773 15.5667 0Q15.5775 -0.3773 15.3031 -0.6364Q15.044 -0.9109 14.6667 -0.9L6.6667 -0.9Q6.4875 -0.9007 6.3223 -0.8315Q6.1565 -0.7636 6.0303 -0.6364Z" fill-rule="evenodd"/><path fill="#4F46E5" transform="matrix(1 0 0 1 42.6667 10.6667)" d="M8.6364 7.3636L0.6364 -0.6364Q0.3773 -0.9109 0 -0.9Q-0.3773 -0.9109 -0.6364 -0.6364Q-0.9109 -0.3773 -0.9 0Q-0.9109 0.3773 -0.6364 0.6364L6.7272 8L-0.6364 15.3636Q-0.9109 15.6227 -0.9 16Q-0.9109 16.3773 -0.6364 16.6364Q-0.3773 16.9109 0 16.9Q0.3773 16.9109 0.6364 16.6364L8.6364 8.6364Q8.9109 8.3773 8.9 8Q8.9109 7.6227 8.6364 7.3636Z" fill-rule="evenodd"/><path fill="#4F46E5" transform="matrix(1 0 0 1 42.6667 37.3333)" d="M8.6364 7.3636L0.6364 -0.6364Q0.3773 -0.9109 0 -0.9Q-0.3773 -0.9109 -0.6364 -0.6364Q-0.9109 -0.3773 -0.9 0Q-0.9109 0.3773 -0.6364 0.6364L6.7272 8L-0.6364 15.3636Q-0.9109 15.6227 -0.9 16Q-0.9109 16.3773 -0.6364 16.6364Q-0.3773 16.9109 0 16.9Q0.3773 16.9109 0.6364 16.6364L8.6364 8.6364Q8.9109 8.3773 8.9 8Q8.9109 7.6227 8.6364 7.3636Z" fill-rule="evenodd"/></svg>